<svg width="63" height="63" viewBox="0 0 63 63" fill="none" xmlns="http://www.w3.org/2000/svg">
<g clip-path="url(#clip0_6_648)">
<path d="M11.5034 0C5.13103 0 0 5.13103 0 11.5034V51.4966C0 57.869 5.13103 63.0001 11.5034 63.0001H33.1794V38.371H26.6668V29.5037H33.1794V21.928C33.1794 15.976 37.0274 10.5112 45.8916 10.5112C49.4806 10.5112 52.1345 10.8557 52.1345 10.8557L51.9258 19.1363C51.9258 19.1363 49.2191 19.1107 46.2656 19.1107C43.0691 19.1107 42.5565 20.5835 42.5565 23.0286V29.5038H52.1798L51.7604 38.371H42.5565V63.0001H51.4966C57.869 63.0001 63 57.8691 63 51.4967V11.5035C63 5.1311 57.869 6.3e-05 51.4966 6.3e-05H11.5034L11.5034 0Z" fill="white"/>
</g>
<defs>
<clipPath id="clip0_6_648">
<rect width="63" height="63" fill="white"/>
</clipPath>
</defs>
</svg>
