<svg width="64" height="63" viewBox="0 0 64 63" fill="none" xmlns="http://www.w3.org/2000/svg">
<path d="M31.7663 20.9955C26.0146 20.9955 21.3206 25.7158 21.3206 31.5C21.3206 37.2842 26.0146 42.0045 31.7663 42.0045C37.5181 42.0045 42.212 37.2842 42.212 31.5C42.212 25.7158 37.5181 20.9955 31.7663 20.9955ZM63.0956 31.5C63.0956 27.1501 63.1348 22.8395 62.8918 18.4975C62.6489 13.4541 61.5048 8.97803 57.8375 5.29004C54.1623 1.59417 49.7191 0.451522 44.704 0.207232C40.3784 -0.0370578 36.0919 0.00234396 31.7742 0.00234396C27.4486 0.00234396 23.1622 -0.0370578 18.8444 0.207232C13.8292 0.451522 9.37824 1.60205 5.71088 5.29004C2.03569 8.98591 0.899435 13.4541 0.656512 18.4975C0.413589 22.8474 0.45277 27.1579 0.45277 31.5C0.45277 35.8421 0.413589 40.1605 0.656512 44.5025C0.899435 49.5459 2.04353 54.022 5.71088 57.71C9.38607 61.4058 13.8292 62.5485 18.8444 62.7928C23.17 63.0371 27.4564 62.9977 31.7742 62.9977C36.0998 62.9977 40.3862 63.0371 44.704 62.7928C49.7191 62.5485 54.1701 61.3979 57.8375 57.71C61.5127 54.0141 62.6489 49.5459 62.8918 44.5025C63.1426 40.1605 63.0956 35.8499 63.0956 31.5ZM31.7663 47.6625C22.8722 47.6625 15.6942 40.4442 15.6942 31.5C15.6942 22.5558 22.8722 15.3375 31.7663 15.3375C40.6605 15.3375 47.8384 22.5558 47.8384 31.5C47.8384 40.4442 40.6605 47.6625 31.7663 47.6625ZM48.4967 18.4502C46.4201 18.4502 44.7431 16.7638 44.7431 14.6755C44.7431 12.5872 46.4201 10.9008 48.4967 10.9008C50.5733 10.9008 52.2503 12.5872 52.2503 14.6755C52.2509 15.1714 52.1542 15.6625 51.9658 16.1207C51.7774 16.579 51.5009 16.9954 51.1522 17.346C50.8036 17.6966 50.3895 17.9746 49.9339 18.1641C49.4782 18.3536 48.9898 18.4508 48.4967 18.4502Z" fill="white"/>
</svg>
