<svg width="64" height="63" viewBox="0 0 64 63" fill="none" xmlns="http://www.w3.org/2000/svg">
<path fill-rule="evenodd" clip-rule="evenodd" d="M0.90088 5.26337C0.90088 3.86744 1.45232 2.52868 2.43389 1.54161C3.41545 0.554538 4.74674 7.01681e-06 6.13489 7.01681e-06H58.3098C58.9977 -0.00112284 59.6791 0.134205 60.315 0.398243C60.9508 0.662281 61.5286 1.04984 62.0153 1.53874C62.502 2.02764 62.8881 2.60827 63.1513 3.2474C63.4146 3.88652 63.5499 4.57159 63.5495 5.26337V57.7309C63.5503 58.4228 63.4153 59.1081 63.1525 59.7475C62.8896 60.387 62.5039 60.968 62.0175 61.4574C61.5311 61.9468 60.9535 62.3349 60.3178 62.5996C59.6821 62.8643 59.0007 63.0004 58.3127 63H6.13489C5.44731 63 4.76647 62.8638 4.13126 62.5991C3.49606 62.3344 2.91894 61.9464 2.43288 61.4574C1.94682 60.9683 1.56134 60.3878 1.29848 59.7489C1.03561 59.1099 0.900506 58.4252 0.90088 57.7338V5.26337ZM25.6984 24.0202H34.1815V28.3042C35.406 25.8415 38.5385 23.625 43.2457 23.625C52.2699 23.625 54.4085 28.5304 54.4085 37.5308V54.2029H45.2761V39.5812C45.2761 34.4553 44.0516 31.563 40.9419 31.563C36.6277 31.563 34.8337 34.6815 34.8337 39.5812V54.2029H25.6984V24.0202ZM10.0362 53.8106H19.1715V23.625H10.0362V53.8077V53.8106ZM20.4786 13.7798C20.4958 14.5664 20.3566 15.3485 20.0692 16.0802C19.7818 16.812 19.3519 17.4786 18.8048 18.041C18.2577 18.6034 17.6044 19.0503 16.8833 19.3553C16.1621 19.6604 15.3876 19.8176 14.6053 19.8176C13.8229 19.8176 13.0484 19.6604 12.3273 19.3553C11.6061 19.0503 10.9528 18.6034 10.4057 18.041C9.85864 17.4786 9.42876 16.812 9.14134 16.0802C8.85392 15.3485 8.71474 14.5664 8.73196 13.7798C8.76577 12.2359 9.39941 10.7667 10.4972 9.68679C11.595 8.6069 13.0696 8.0022 14.6053 8.0022C16.1409 8.0022 17.6156 8.6069 18.7134 9.68679C19.8111 10.7667 20.4448 12.2359 20.4786 13.7798Z" fill="white"/>
</svg>
