<svg width="50" height="50" viewBox="0 0 50 50" fill="none" xmlns="http://www.w3.org/2000/svg">
<mask id="mask0_81_23" style="mask-type:luminance" maskUnits="userSpaceOnUse" x="0" y="0" width="50" height="50">
<path d="M50 0H0V50H50V0Z" fill="white"/>
</mask>
<g mask="url(#mask0_81_23)">
<path d="M46.0029 28.101C45.8348 32.9085 43.9728 37.5425 40.6875 41.3293C37.4022 45.116 32.8648 47.8583 27.7348 49.1576C22.6047 50.4569 17.1494 50.2453 12.1616 48.5538C7.17382 46.8623 2.91358 43.7789 0 39.7519L0.007259 39.7447L0.0389302 39.7304C0.046848 39.7304 0.0468469 39.7233 0.0547646 39.7233C0.0626824 39.709 0.070602 39.709 0.0785198 39.7018L8.05698 34.9962L41.9351 15.0038V15.011C42.0215 15.1247 42.1001 15.2385 42.1792 15.3594C42.3686 15.6227 42.5421 15.8955 42.715 16.1713C42.8806 16.4274 43.0383 16.6835 43.1881 16.9456C43.417 17.3298 43.6302 17.7283 43.8189 18.1274C43.9139 18.3049 44.0008 18.4836 44.0795 18.6635C44.2055 18.9268 44.3157 19.1829 44.4259 19.4533C44.513 19.6457 44.5836 19.8447 44.6549 20.0442C44.7208 20.1937 44.773 20.342 44.8284 20.4993C45.0408 21.1045 45.2302 21.7168 45.3879 22.3428C45.8712 24.2296 46.078 26.1655 46.0029 28.101Z" fill="url(#paint0_linear_81_23)"/>
<g style="mix-blend-mode:multiply" opacity="0.16">
<path d="M45.3879 22.3427L0 39.7518L41.9351 15.0049C43.5583 17.247 44.7274 19.7315 45.3879 22.3427Z" fill="black"/>
</g>
<path d="M50.0003 10.2505L49.9924 10.2577C49.9845 10.2577 49.9766 10.2719 49.9614 10.2719C49.9518 10.285 49.938 10.295 49.9218 10.3005L41.9381 15.0121L8.0593 34.9973C7.97287 34.8782 7.89369 34.7626 7.81517 34.6399C4.35365 29.6891 3.16772 23.7147 4.50948 17.9868C4.68593 17.2302 4.90439 16.4822 5.16401 15.7453C5.17014 15.7338 5.17544 15.7218 5.17985 15.7097C5.18673 15.6754 5.19734 15.6419 5.21152 15.6096C6.65601 11.6016 9.31315 8.03812 12.8828 5.3216C16.4525 2.60509 20.7924 0.843792 25.4125 0.236635C30.0326 -0.370522 34.7487 0.200661 39.0282 1.88567C43.3076 3.57067 46.9798 6.30234 49.6302 9.77218C49.6413 9.78355 49.6516 9.79553 49.6612 9.80792C49.78 9.95147 49.8915 10.101 50.0003 10.2505Z" fill="url(#paint1_linear_81_23)"/>
<g style="mix-blend-mode:multiply" opacity="0.25">
<path d="M42.179 15.3605C39.9475 16.7841 37.3538 18.3984 34.5548 20.1079C33.1032 20.9906 31.6147 21.9157 30.0773 22.827C28.54 23.7384 26.9861 24.67 25.4336 25.5956C23.8645 26.5135 22.2955 27.4248 20.7489 28.3284C19.2036 29.2183 17.6742 30.0939 16.2001 30.9404C13.2356 32.6272 10.4598 34.1789 8.05541 35.4816C5.66691 36.798 3.63469 37.8445 2.22928 38.5986C0.991474 39.2538 0.210915 39.6452 0.037384 39.7303C0.0467524 39.7172 0.0606604 39.7071 0.0769711 39.7018L41.9335 15.0049C42.0213 15.1187 42.0998 15.2396 42.179 15.3605Z" fill="black"/>
</g>
<g style="mix-blend-mode:screen" opacity="0.7">
<path d="M49.9609 10.2719C49.9514 10.285 49.9375 10.295 49.9213 10.3005L8.05876 34.9973C7.97233 34.8782 7.89322 34.7626 7.8147 34.6399C10.0461 33.2235 12.6478 31.6021 15.446 29.8926C16.8976 29.0098 18.3947 28.0991 19.9242 27.1735C21.4536 26.2627 23.0148 25.3305 24.568 24.4049C26.137 23.487 27.706 22.5756 29.2526 21.672C30.7992 20.7684 32.3274 19.9071 33.8014 19.0601C36.7581 17.3732 39.5418 15.8216 41.9455 14.5117C44.3346 13.1954 46.3662 12.156 47.7723 11.4019C49.0068 10.7484 49.7873 10.3571 49.9609 10.2719Z" fill="white"/>
</g>
<g style="mix-blend-mode:screen" opacity="0.25">
<path d="M42.8652 27.3176C42.8707 28.7003 42.7122 30.0795 42.3921 31.4317C41.8086 33.9748 40.6745 36.3888 39.0548 38.5351C37.4352 40.6814 35.362 42.5179 32.9541 43.939C30.5463 45.3601 27.8512 46.338 25.0236 46.8164C22.1961 47.2948 19.2917 47.2644 16.4773 46.7268C11.851 45.8688 7.66209 43.6695 4.54846 40.4635L4.77742 40.3283L42.8652 27.3176Z" fill="white"/>
</g>
<g style="mix-blend-mode:screen" opacity="0.25">
<path d="M45.4512 9.53873L45.0019 9.80201L7.53699 18.8338C7.55282 18.7487 7.568 18.6551 7.59175 18.5706C8.1772 16.027 9.31314 13.6129 10.9344 11.4665C12.5557 9.32013 14.6303 7.4838 17.0394 6.06282C19.4485 4.64181 22.1446 3.66412 24.9731 3.18582C27.8016 2.7075 30.7069 2.73798 33.5224 3.27549C38.1472 4.13688 42.335 6.33569 45.4512 9.53873Z" fill="white"/>
</g>
<g style="mix-blend-mode:multiply" opacity="0.16">
<path d="M46.0029 28.101C45.8348 32.9086 43.9728 37.5425 40.6875 41.3293C37.4022 45.116 32.8648 47.8583 27.7348 49.1576C22.6047 50.4569 17.1494 50.2453 12.1616 48.5539C7.17382 46.8624 2.91358 43.779 0 39.7519C0.797451 40.7001 1.65836 41.6033 2.57789 42.4567C4.42589 44.1192 6.53508 45.527 8.83754 46.6346C11.1179 47.7326 13.5726 48.5056 16.1146 48.926L18.0228 49.1679C18.6608 49.2679 19.3075 49.2394 19.9462 49.2816L20.9082 49.3174L21.8702 49.2751C22.5083 49.2621 23.1452 49.2168 23.7777 49.1393L25.678 48.876L27.5386 48.4495C28.1694 48.3304 28.7606 48.0862 29.3676 47.9134C29.9759 47.7317 30.5689 47.5105 31.1419 47.2517C32.3086 46.7732 33.4335 46.2157 34.5069 45.5839L36.0832 44.5802C36.5801 44.2174 37.0611 43.8332 37.55 43.4556C38.033 43.0719 38.4935 42.6657 38.9297 42.2387L39.6079 41.6127L40.207 40.9366C41.0264 40.0336 41.7744 39.0798 42.4458 38.0822L43.3603 36.5306C43.6836 36.0183 43.873 35.4632 44.1409 34.9295C44.2669 34.6591 44.4048 34.3934 44.5196 34.1182L44.8112 33.264C44.9927 32.6946 45.2368 32.118 45.3707 31.5557C45.6609 30.4171 45.8721 29.2633 46.0029 28.101Z" fill="black"/>
</g>
<g style="mix-blend-mode:screen" opacity="0.7">
<path d="M49.6273 9.7733C49.5614 9.70242 49.4617 9.5946 49.3278 9.45344C49.083 9.16157 48.668 8.76308 48.1685 8.24367C46.7383 6.86534 45.1349 5.64235 43.3908 4.59951C42.2411 3.90497 41.031 3.29562 39.7724 2.77741C38.3751 2.21167 36.9271 1.75434 35.444 1.4104C35.0653 1.31807 34.6397 1.24719 34.2372 1.16142C33.867 1.08339 33.4415 1.0548 33.0495 0.991068C32.6398 0.941034 32.2373 0.890999 31.8276 0.834413C31.4099 0.791526 31.0002 0.784372 30.5818 0.755781C30.1642 0.741485 29.7465 0.706348 29.3282 0.696222L28.0594 0.738513C27.214 0.760094 26.3712 0.831518 25.5362 0.952351C25.1168 0.991599 24.7007 1.05567 24.2905 1.14415L23.0448 1.38241C22.2326 1.56706 21.4289 1.82379 20.6325 2.04418C19.8678 2.342 19.0793 2.58503 18.3463 2.91263C17.9834 3.07644 17.6205 3.24679 17.2582 3.41059L16.7139 3.65957L16.2098 3.9443C15.5394 4.33624 14.8532 4.67754 14.2462 5.11177C13.0578 5.88837 11.9473 6.75759 10.9273 7.70937C10.4483 8.13068 9.99803 8.57765 9.57865 9.0478C9.17682 9.50287 8.79083 9.94425 8.42794 10.3582C8.09803 10.8067 7.78924 11.2195 7.48968 11.618C6.91432 12.4085 6.52765 13.1625 6.14166 13.7624C5.59732 14.8727 5.25883 15.563 5.17965 15.7125C5.17524 15.7247 5.16995 15.7367 5.16382 15.7483C5.16382 15.7483 5.17965 15.6982 5.21132 15.6124C6.65581 11.6045 9.31294 8.04103 12.8826 5.32451C16.4523 2.608 20.7922 0.846689 25.4123 0.239534C30.0324 -0.367623 34.7486 0.20356 39.028 1.88857C43.3074 3.57358 46.9796 6.30525 49.63 9.77509L49.6273 9.7733Z" fill="white"/>
</g>
</g>
<defs>
<linearGradient id="paint0_linear_81_23" x1="15.1399" y1="48.3884" x2="29.4672" y2="11.7048" gradientUnits="userSpaceOnUse">
<stop stop-color="#F50B86"/>
<stop offset="1" stop-color="#396074"/>
</linearGradient>
<linearGradient id="paint1_linear_81_23" x1="31.7265" y1="2.8006" x2="23.8535" y2="36.3001" gradientUnits="userSpaceOnUse">
<stop stop-color="#F50B86"/>
<stop offset="1" stop-color="#FC0048"/>
</linearGradient>
</defs>
</svg>
